<?xml version="1.0" ?><!DOCTYPE svg  PUBLIC '-//W3C//DTD SVG 1.1//EN'  'http://www.w3.org/Graphics/SVG/1.1/DTD/svg11.dtd'><svg height="2.7092mm" style="shape-rendering:geometricPrecision; text-rendering:geometricPrecision; image-rendering:optimizeQuality; fill-rule:evenodd; clip-rule:evenodd" version="1.1" viewBox="0 0 270.92 270.92" width="2.7092mm" xml:space="preserve" xmlns="http://www.w3.org/2000/svg" xmlns:xlink="http://www.w3.org/1999/xlink"><defs><style type="text/css">
   <![CDATA[
    .fil0 {fill:black;fill-rule:nonzero}
   ]]>
  </style></defs><g id="Layer_x0020_1"><path class="fil0" d="M244.31 154.49l-83.68 -18.53c-1.15,-0.24 -2.35,0 -3.3,0.7 -0.94,0.69 -1.54,1.76 -1.64,2.93l-6.94 82.74c-0.16,1.79 0.89,3.47 2.57,4.13l21.69 8.48 0 11.13 -73.2 -1.62 0 -9.45 21.73 -8.97c1.63,-0.68 2.65,-2.34 2.5,-4.11l-6.96 -82.74c-0.09,-1.17 -0.7,-2.24 -1.64,-2.94 -0.93,-0.69 -2.15,-0.95 -3.29,-0.69l-85.55 18.94 0 -17.36 87.2 -41.32c1.42,-0.67 2.32,-2.1 2.32,-3.67l0 -47.11c0,-11.18 9.1,-20.28 20.29,-20.28 11.18,0 20.28,9.1 20.28,20.28l0 47.23c0,1.57 0.9,3 2.31,3.67l85.31 40.87 0 17.69zm5.82 -23.92l-85.3 -40.86 0 -44.68c0,-15.67 -12.75,-28.42 -28.42,-28.42 -15.68,0 -28.42,12.75 -28.42,28.42l0 44.53 -87.2 41.32c-1.42,0.67 -2.32,2.1 -2.32,3.67l0 25.01c0,1.23 0.55,2.4 1.52,3.17 0.97,0.78 2.23,1.06 3.42,0.8l85.96 -19.03 6.31 75.15 -21.49 8.86c-1.52,0.63 -2.52,2.12 -2.52,3.76l0 16.16c0,2.2 1.77,4.01 3.98,4.06l81.34 1.82c0.02,0 0.06,0 0.09,0 1.06,0 2.08,-0.42 2.85,-1.16 0.77,-0.77 1.22,-1.82 1.22,-2.91l0 -18.08c0,-1.68 -1.03,-3.18 -2.59,-3.79l-21.46 -8.39 6.31 -75.07 84.08 18.62c1.21,0.25 2.47,-0.03 3.44,-0.8 0.95,-0.77 1.52,-1.94 1.52,-3.17l0 -25.32c0,-1.56 -0.91,-2.99 -2.32,-3.67z"/></g></svg>